<mxfile host="app.diagrams.net" agent="Mozilla/5.0 (Windows NT 10.0; Win64; x64) AppleWebKit/537.36 (KHTML, like Gecko) Chrome/136.0.0.0 Safari/537.36" version="26.1.1">
  <diagram name="Trang-1" id="HGAKKvOLvfE-OCJN4G7-">
    <mxGraphModel dx="2090" dy="922" grid="0" gridSize="10" guides="1" tooltips="1" connect="1" arrows="1" fold="1" page="0" pageScale="1" pageWidth="827" pageHeight="1169" math="0" shadow="0">
      <root>
        <mxCell id="0" />
        <mxCell id="1" parent="0" />
        <mxCell id="ldWpct4xOvpmmAyCrHCJ-1" value="User" style="shape=umlActor;verticalLabelPosition=bottom;verticalAlign=top;html=1;" parent="1" vertex="1">
          <mxGeometry x="-412" y="69" width="40" height="72" as="geometry" />
        </mxCell>
        <mxCell id="ldWpct4xOvpmmAyCrHCJ-4" value="Bình luận" style="ellipse;whiteSpace=wrap;html=1;" parent="1" vertex="1">
          <mxGeometry x="-129.5" y="-12" width="194" height="45" as="geometry" />
        </mxCell>
        <mxCell id="ldWpct4xOvpmmAyCrHCJ-5" value="Tạo bài viết/ Đặt câu hỏi" style="ellipse;whiteSpace=wrap;html=1;" parent="1" vertex="1">
          <mxGeometry x="-172" y="-68" width="194" height="45" as="geometry" />
        </mxCell>
        <mxCell id="ldWpct4xOvpmmAyCrHCJ-6" value="Đăng nhập/Đăng ký" style="ellipse;whiteSpace=wrap;html=1;" parent="1" vertex="1">
          <mxGeometry x="-207" y="-132" width="194" height="45" as="geometry" />
        </mxCell>
        <mxCell id="ldWpct4xOvpmmAyCrHCJ-8" value="Đăng ký tham gia hội thảo&amp;nbsp;" style="ellipse;whiteSpace=wrap;html=1;" parent="1" vertex="1">
          <mxGeometry x="-138" y="120" width="194" height="45" as="geometry" />
        </mxCell>
        <mxCell id="ldWpct4xOvpmmAyCrHCJ-9" value="Chat AI" style="ellipse;whiteSpace=wrap;html=1;" parent="1" vertex="1">
          <mxGeometry x="-35" y="186" width="157" height="45" as="geometry" />
        </mxCell>
        <mxCell id="ldWpct4xOvpmmAyCrHCJ-10" value="Theo dõi giá nông sản" style="ellipse;whiteSpace=wrap;html=1;" parent="1" vertex="1">
          <mxGeometry x="-160" y="248" width="250" height="45" as="geometry" />
        </mxCell>
        <mxCell id="ldWpct4xOvpmmAyCrHCJ-11" value="Quản lý hồ sơ cá nhân" style="ellipse;whiteSpace=wrap;html=1;" parent="1" vertex="1">
          <mxGeometry x="-179" y="313" width="194" height="45" as="geometry" />
        </mxCell>
        <mxCell id="ldWpct4xOvpmmAyCrHCJ-12" value="Xem thư viện khóa học" style="ellipse;whiteSpace=wrap;html=1;" parent="1" vertex="1">
          <mxGeometry x="-220" y="374" width="194" height="45" as="geometry" />
        </mxCell>
        <mxCell id="ldWpct4xOvpmmAyCrHCJ-14" value="Use case diagram" style="shape=umlFrame;whiteSpace=wrap;html=1;pointerEvents=0;" parent="1" vertex="1">
          <mxGeometry x="-497" y="-228" width="748" height="753" as="geometry" />
        </mxCell>
        <mxCell id="ldWpct4xOvpmmAyCrHCJ-17" value="" style="endArrow=none;html=1;rounded=0;fontSize=12;startSize=8;endSize=8;curved=1;" parent="1" edge="1">
          <mxGeometry relative="1" as="geometry">
            <mxPoint x="-358" y="82" as="sourcePoint" />
            <mxPoint x="-217" y="-100" as="targetPoint" />
          </mxGeometry>
        </mxCell>
        <mxCell id="ldWpct4xOvpmmAyCrHCJ-18" value="" style="endArrow=none;html=1;rounded=0;fontSize=12;startSize=8;endSize=8;curved=1;" parent="1" edge="1">
          <mxGeometry relative="1" as="geometry">
            <mxPoint x="-356" y="89" as="sourcePoint" />
            <mxPoint x="-184" y="-44" as="targetPoint" />
          </mxGeometry>
        </mxCell>
        <mxCell id="ldWpct4xOvpmmAyCrHCJ-19" value="" style="endArrow=none;html=1;rounded=0;fontSize=12;startSize=8;endSize=8;curved=1;" parent="1" edge="1">
          <mxGeometry relative="1" as="geometry">
            <mxPoint x="-355" y="99" as="sourcePoint" />
            <mxPoint x="-148" y="17" as="targetPoint" />
          </mxGeometry>
        </mxCell>
        <mxCell id="ldWpct4xOvpmmAyCrHCJ-21" value="" style="endArrow=none;html=1;rounded=0;fontSize=12;startSize=8;endSize=8;curved=1;" parent="1" edge="1">
          <mxGeometry relative="1" as="geometry">
            <mxPoint x="-346" y="114" as="sourcePoint" />
            <mxPoint x="-152" y="141" as="targetPoint" />
          </mxGeometry>
        </mxCell>
        <mxCell id="ldWpct4xOvpmmAyCrHCJ-22" value="" style="endArrow=none;html=1;rounded=0;fontSize=12;startSize=8;endSize=8;curved=1;" parent="1" edge="1">
          <mxGeometry relative="1" as="geometry">
            <mxPoint x="-346" y="122" as="sourcePoint" />
            <mxPoint x="-43" y="209" as="targetPoint" />
          </mxGeometry>
        </mxCell>
        <mxCell id="ldWpct4xOvpmmAyCrHCJ-23" value="" style="endArrow=none;html=1;rounded=0;fontSize=12;startSize=8;endSize=8;curved=1;" parent="1" edge="1">
          <mxGeometry relative="1" as="geometry">
            <mxPoint x="-346" y="127" as="sourcePoint" />
            <mxPoint x="-168" y="265" as="targetPoint" />
          </mxGeometry>
        </mxCell>
        <mxCell id="ldWpct4xOvpmmAyCrHCJ-24" value="" style="endArrow=none;html=1;rounded=0;fontSize=12;startSize=8;endSize=8;curved=1;" parent="1" edge="1">
          <mxGeometry relative="1" as="geometry">
            <mxPoint x="-350" y="136" as="sourcePoint" />
            <mxPoint x="-191" y="331" as="targetPoint" />
          </mxGeometry>
        </mxCell>
        <mxCell id="ldWpct4xOvpmmAyCrHCJ-25" value="" style="endArrow=none;html=1;rounded=0;fontSize=12;startSize=8;endSize=8;curved=1;" parent="1" edge="1">
          <mxGeometry relative="1" as="geometry">
            <mxPoint x="-358" y="147" as="sourcePoint" />
            <mxPoint x="-231" y="370" as="targetPoint" />
          </mxGeometry>
        </mxCell>
        <mxCell id="ldWpct4xOvpmmAyCrHCJ-28" value="" style="swimlane;startSize=0;" parent="1" vertex="1">
          <mxGeometry x="-305" y="-187" width="462" height="651" as="geometry" />
        </mxCell>
        <mxCell id="ldWpct4xOvpmmAyCrHCJ-29" value="Hệ thống website Kết nối thanh niên" style="text;html=1;align=center;verticalAlign=middle;whiteSpace=wrap;rounded=0;" parent="ldWpct4xOvpmmAyCrHCJ-28" vertex="1">
          <mxGeometry x="123.5" width="213" height="30" as="geometry" />
        </mxCell>
      </root>
    </mxGraphModel>
  </diagram>
</mxfile>
